<!DOCTYPE svg PUBLIC "-//W3C//DTD SVG 1.1//EN" "http://www.w3.org/Graphics/SVG/1.1/DTD/svg11.dtd">
<!-- Uploaded to: SVG Find, www.svgrepo.com, Transformed by: SVG Find Mixer Tools -->
<svg fill="#7d7d7d" width="800px" height="800px" version="1.1" viewBox="144 144 512 512" xmlns="http://www.w3.org/2000/svg" stroke="#7d7d7d">
<g id="SVGRepo_bgCarrier" stroke-width="0"/>
<g id="SVGRepo_tracerCarrier" stroke-linecap="round" stroke-linejoin="round"/>
<g id="SVGRepo_iconCarrier"> <path d="m231.02 396.02c-12.891 12.754-22.742 28.254-28.816 45.34l-10.078 27.809-10.73-27.254c-5.3242-13.332-8.0781-27.555-8.1094-41.914-0.81641-30.09 11.484-59.047 33.703-79.352 21.633-20.207 50.258-31.242 79.855-30.781 31.387 0 58.441 12.898 80.609 38.34 7.0547 8.793 12.918 18.484 17.43 28.816l12.898 27.859-27.66-13.402v0.003906c-16.367-7.8906-34.324-11.922-52.496-11.789-32.66-0.45312-64.039 12.707-86.605 36.324zm46.402 117.69v-0.003907c0.23828-24.414 8.1133-48.145 22.52-67.863 14.32-21.004 34.973-36.887 58.945-45.34l27.508-10.078-27.105-10.578c-13.203-5.2578-27.297-7.9258-41.512-7.8594-29.336-0.10938-57.5 11.496-78.246 32.238-20.742 20.746-32.348 48.91-32.238 78.246-0.42578 29.332 11.191 57.559 32.141 78.09 10.301 10.41 22.586 18.648 36.125 24.234l26.852 10.984-12.695-26.148c-8.3164-17.461-12.52-36.59-12.293-55.926zm118.6 55.418c-23.656-22.605-36.82-54.043-36.324-86.758-0.070312-18.184 4.0312-36.145 11.988-52.496l13.199-27.66-27.859 12.898c-10.352 4.625-20.043 10.605-28.816 17.785-25.441 22.016-38.34 49.07-38.34 80.609-0.46094 29.598 10.574 58.223 30.781 79.852 20.367 22.09 49.316 34.258 79.352 33.352 14.359-0.03125 28.582-2.7852 41.914-8.1094l27.508-10.883-27.859-10.078v0.003906c-17.145-6.0039-32.715-15.805-45.543-28.668zm117.69-46.402h-0.003907c-24.434-0.28516-48.164-8.2109-67.863-22.672-21.004-14.32-36.887-34.973-45.34-58.945l-10.078-27.508-10.578 27.105c-5.2578 13.207-7.9258 27.301-7.8594 41.512-0.10938 29.336 11.496 57.5 32.238 78.246 20.746 20.742 48.91 32.348 78.246 32.242 29.332 0.42578 57.559-11.191 78.09-32.145 10.41-10.301 18.648-22.586 24.234-36.121l10.984-26.852-26.148 12.695v-0.003906c-17.461 8.3164-36.59 12.52-55.926 12.293zm-31.34-82.422c-18.184 0.066406-36.145-4.0352-52.496-11.992l-27.66-13.199 12.898 27.859c4.625 10.352 10.605 20.043 17.785 28.82 22.016 25.191 49.07 38.34 80.609 38.34 29.598 0.45703 58.223-10.574 79.852-30.785 22.09-20.367 34.258-49.316 33.352-79.348-0.03125-14.359-2.7852-28.582-8.1094-41.918l-10.883-27.508-10.078 27.859h0.003906c-6.0781 17.09-15.926 32.59-28.82 45.344-22.496 23.652-53.812 36.883-86.453 36.527zm40.305-154.07c-0.25781 24.445-8.168 48.195-22.621 67.914-14.32 21.004-34.973 36.887-58.945 45.344l-27.508 10.078 27.105 10.578c13.207 5.2578 27.301 7.9258 41.512 7.8594 29.406 0.46484 57.703-11.199 78.242-32.246 21.004-20.547 32.66-48.809 32.246-78.191 0.42578-29.332-11.191-57.555-32.145-78.09-10.301-10.41-22.586-18.648-36.121-24.234l-26.852-10.984 12.695 26.148-0.003906 0.003907c8.3086 17.441 12.512 36.551 12.293 55.871zm-118.6-55.418c23.633 22.633 36.758 54.09 36.227 86.805 0.066406 18.188-4.0352 36.145-11.992 52.496l-13.199 27.66 27.859-12.898c10.352-4.6211 20.043-10.602 28.82-17.781 25.191-22.016 38.34-49.07 38.34-80.609v-0.003907c0.45703-29.598-10.574-58.223-30.785-79.852-20.367-22.09-49.316-34.258-79.348-33.352-14.359 0.03125-28.582 2.7852-41.918 8.1094l-27.508 10.883 27.859 10.078c17.148 6.0039 32.715 15.801 45.547 28.664zm-117.79 46.602c24.418 0.23828 48.145 8.1133 67.863 22.52 21.004 14.32 36.887 34.973 45.344 58.945l10.078 27.508 10.578-27.105c5.2578-13.203 7.9258-27.297 7.8594-41.512 0.46484-29.406-11.199-57.703-32.246-78.242-20.547-21.004-48.809-32.66-78.191-32.242-29.332-0.42578-57.555 11.191-78.09 32.141-10.41 10.301-18.648 22.586-24.234 36.125l-10.984 26.852 26.148-12.695h0.003907c17.441-8.3086 36.551-12.512 55.871-12.293z"/> </g>
</svg>