<!DOCTYPE svg PUBLIC "-//W3C//DTD SVG 1.1//EN" "http://www.w3.org/Graphics/SVG/1.1/DTD/svg11.dtd">
<!-- Uploaded to: SVG Find, www.svgrepo.com, Transformed by: SVG Find Mixer Tools -->
<svg fill="#808080" width="800px" height="800px" version="1.1" viewBox="144 144 512 512" xmlns="http://www.w3.org/2000/svg" stroke="#808080">
<g id="SVGRepo_bgCarrier" stroke-width="0"/>
<g id="SVGRepo_tracerCarrier" stroke-linecap="round" stroke-linejoin="round"/>
<g id="SVGRepo_iconCarrier"> <path d="m525.95 281.92c-25.953 0.035156-51.055 9.2656-70.848 26.055l-55.105 46.602-55.105-46.602h0.003906c-21.516-18.055-49.117-27.215-77.16-25.609-28.047 1.6094-54.418 13.867-73.727 34.27-19.312 20.398-30.102 47.402-30.172 75.492v15.746c0.070312 28.09 10.859 55.094 30.172 75.496 19.309 20.398 45.68 32.656 73.727 34.266 28.043 1.6094 55.645-7.5508 77.16-25.609l55.105-46.602 55.105 46.602h-0.003907c21.52 18.059 49.117 27.219 77.164 25.609 28.043-1.6094 54.414-13.867 73.723-34.266 19.312-20.402 30.102-47.406 30.172-75.496v-15.746c0-29.227-11.613-57.258-32.281-77.926-20.668-20.668-48.699-32.281-77.93-32.281zm95.25 125.95h0.003906c-0.003906 24.34-9.3281 47.754-26.051 65.438-16.727 17.684-39.586 28.293-63.891 29.648-24.301 1.3594-48.199-6.6367-66.793-22.348l-59.828-50.617-42.352-35.816-46.523-39.359 0.003906-0.003906c-10.676-9.0312-24.199-13.996-38.18-14.012h-3.2305c-21.09 0-40.582 11.254-51.129 29.52-10.547 18.27-10.547 40.773 0 59.039 10.547 18.27 30.039 29.523 51.129 29.523h3.2305c13.98-0.015624 27.504-4.9805 38.18-14.016l41.801-35.344 30.859 26.137-53.215 44.949h-0.003906c-18.594 15.645-42.465 23.59-66.727 22.211-24.262-1.3789-47.078-11.98-63.781-29.629-16.703-17.652-26.027-41.02-26.066-65.32v-15.746c0.003906-24.34 9.3242-47.754 26.051-65.438s39.586-28.293 63.891-29.648c24.301-1.3594 48.199 6.6406 66.793 22.352l59.828 50.617 42.352 35.816 46.523 39.359h-0.003907c10.672 9.0352 24.199 13.996 38.18 14.012h3.2305c21.09 0 40.582-11.254 51.129-29.52s10.547-40.773 0-59.039c-10.547-18.27-30.039-29.52-51.129-29.52h-3.2305c-13.98 0.015624-27.508 4.9766-38.18 14.012l-41.801 35.344-30.859-26.137 53.215-44.949 0.003906 0.003906c18.59-15.711 42.488-23.711 66.793-22.352 24.301 1.3555 47.16 11.965 63.887 29.648 16.727 17.684 26.047 41.098 26.051 65.438zm-274.89-7.8711-39.992 33.77c-7.9805 6.7695-18.109 10.484-28.574 10.469h-3.2266c-15.809 0-30.41-8.4297-38.316-22.121-7.9023-13.688-7.9023-30.551 0-44.238 7.9062-13.688 22.508-22.121 38.316-22.121h3.2266c10.465-0.011718 20.594 3.6992 28.574 10.469zm107.38 0 39.988-33.77v-0.003907c7.9805-6.7695 18.109-10.48 28.574-10.469h3.2305c15.805 0 30.41 8.4336 38.312 22.121 7.9023 13.688 7.9023 30.551 0 44.238-7.9023 13.691-22.508 22.121-38.312 22.121h-3.2305c-10.465 0.015625-20.594-3.6992-28.574-10.469z"/> </g>
</svg>