<svg width="720" height="720" viewBox="0 0 720 660" xmlns="http://www.w3.org/2000/svg">
  <path id="d" d="M360 60q0-30 30-30h120q30 0 30 30v240q0 120-90 210-90 120-90 150 0-30-90-150-90-90-90-210V60q0-30 30-30h120q30 0 30 30" fill="none"/>
  <g clip-path="url(#a)">
    <path d="M360 60q0-30 30-30h120q30 0 30 30v240q0 120-90 210-90 120-90 150 0-30-90-150-90-90-90-210V60q0-30 30-30h120q30 0 30 30" fill="url(#b)"/>
    <linearGradient id="b" x1="0%" y1="0%" x2="0%" y2="100%">
      <stop offset="0%" style="stop-color:#8b4513;stop-opacity:1"/>
      <stop offset="100%" style="stop-color:#5c2e0a;stop-opacity:1"/>
    </linearGradient>
    <path stroke="url(#c)" stroke-width="9" d="M240 30v630M300 30v630M360 30v630M420 30v630M480 30v630"/>
    <path stroke="#ccc" stroke-width="3" opacity=".5" d="M240 30v630M300 30v630M360 30v630M420 30v630M480 30v630"/>
  </g>
  <linearGradient id="c" x1="0%" y1="0%" x2="0%" y2="100%">
    <stop offset="0%" style="stop-color:#b3b3b3;stop-opacity:1"/>
    <stop offset="100%" style="stop-color:gray;stop-opacity:1"/>
  </linearGradient>
  <clipPath id="a">
    <use href="#d"/>
  </clipPath>
  <!-- Straight horizontal metal cross beam -->
  <path d="M180 150h360" fill="none" stroke="#b3b3b3" stroke-width="24"/>
  <path d="M180 150h360" fill="none" stroke="#000" stroke-width="12"/>
  <circle cx="300" cy="300" r="9" fill="gray" stroke="#666" stroke-width="3"/>
  <circle cx="420" cy="300" r="9" fill="gray" stroke="#666" stroke-width="3"/>
  <circle cx="300" cy="420" r="9" fill="gray" stroke="#666" stroke-width="3"/>
  <circle cx="420" cy="420" r="9" fill="gray" stroke="#666" stroke-width="3"/>
  <use href="#d" fill="none" stroke="url(#c)" stroke-width="24"/>
  <use href="#d" fill="none" stroke="#000" stroke-width="12"/>
</svg>